<svg width="15" height="14" viewBox="0 0 15 14" fill="none" xmlns="http://www.w3.org/2000/svg">
<path d="M5.02081 6.41669H6.18748V7.58335H5.02081V6.41669ZM5.02081 8.75002H6.18748V9.91669H5.02081V8.75002ZM7.35415 6.41669H8.52081V7.58335H7.35415V6.41669ZM7.35415 8.75002H8.52081V9.91669H7.35415V8.75002ZM9.68748 6.41669H10.8541V7.58335H9.68748V6.41669ZM9.68748 8.75002H10.8541V9.91669H9.68748V8.75002Z" fill="white"/>
<path d="M3.85417 12.8334H12.0208C12.6642 12.8334 13.1875 12.3101 13.1875 11.6667V3.50002C13.1875 2.8566 12.6642 2.33335 12.0208 2.33335H10.8542V1.16669H9.6875V2.33335H6.1875V1.16669H5.02083V2.33335H3.85417C3.21075 2.33335 2.6875 2.8566 2.6875 3.50002V11.6667C2.6875 12.3101 3.21075 12.8334 3.85417 12.8334ZM12.0208 4.66669L12.0214 11.6667H3.85417V4.66669H12.0208Z" fill="white"/>
</svg>
