<svg width="22" height="24" viewBox="0 0 22 24" fill="none" xmlns="http://www.w3.org/2000/svg">
<g clip-path="url(#clip0)">
<path d="M10.7427 22.4013C8.8039 22.4013 6.90859 21.8204 5.2965 20.7318C3.68441 19.6433 2.42793 18.0962 1.68597 16.2861C0.944006 14.476 0.749874 12.4842 1.12812 10.5626C1.50637 8.64096 2.44002 6.87585 3.81099 5.49044C5.18196 4.10504 6.92869 3.16157 8.83028 2.77934C10.7319 2.39711 12.7029 2.59328 14.4942 3.34306C16.2854 4.09283 17.8165 5.36253 18.8936 6.99159C19.9708 8.62065 20.5457 10.5359 20.5457 12.4952C20.5457 15.1224 19.5129 17.6421 17.6745 19.4999C15.8361 21.3577 13.3427 22.4013 10.7427 22.4013ZM10.7427 4.39012C9.15642 4.39012 7.60571 4.86547 6.28673 5.75606C4.96774 6.64666 3.93972 7.91249 3.33266 9.3935C2.72559 10.8745 2.56676 12.5042 2.87624 14.0764C3.18571 15.6486 3.9496 17.0928 5.07131 18.2263C6.19301 19.3598 7.62215 20.1317 9.178 20.4445C10.7338 20.7572 12.3465 20.5967 13.8121 19.9833C15.2777 19.3698 16.5303 18.331 17.4116 16.9981C18.293 15.6652 18.7634 14.0982 18.7634 12.4952C18.7634 10.3456 17.9183 8.28402 16.4142 6.76403C14.91 5.24404 12.8699 4.39012 10.7427 4.39012Z" fill="black"/>
<path d="M0.0471802 4.0228L3.23874 0.790878L4.50038 2.06313L1.30882 5.29505L0.0471802 4.0228Z" fill="black"/>
<path d="M16.9814 2.05571L18.2431 0.783458L21.4346 4.01538L20.173 5.28763L16.9814 2.05571Z" fill="black"/>
<path d="M15.1971 11.5946H11.6324V7.99236H9.85006V11.5946H6.28534V13.3957H9.85006V16.998H11.6324V13.3957H15.1971V11.5946Z" fill="black"/>
</g>
<defs>
<clipPath id="clip0">
<rect width="21.3883" height="22.8142" fill="white" transform="translate(0.046875 0.367065)"/>
</clipPath>
</defs>
</svg>
