<svg width="29" height="28" viewBox="0 0 29 28" fill="none" xmlns="http://www.w3.org/2000/svg">
<path d="M11.0977 19.3129H13.1239V12.6875C13.1239 12.5672 13.2223 12.4688 13.3426 12.4688H14.9833C15.1036 12.4688 15.202 12.5672 15.202 12.6875V19.3129H17.2227C17.4059 19.3129 17.5071 19.5234 17.395 19.6656L14.3325 23.5402C14.312 23.5664 14.2859 23.5875 14.256 23.6021C14.2262 23.6166 14.1934 23.6242 14.1602 23.6242C14.127 23.6242 14.0942 23.6166 14.0644 23.6021C14.0345 23.5875 14.0084 23.5664 13.9879 23.5402L10.9254 19.6656C10.8133 19.5234 10.9145 19.3129 11.0977 19.3129Z" fill="white"/>
<path d="M5.97344 10.027C7.22578 6.72383 10.4168 4.375 14.1547 4.375C17.8926 4.375 21.0836 6.72109 22.3359 10.0242C24.6793 10.6395 26.4102 12.775 26.4102 15.3125C26.4102 18.334 23.9629 20.7812 20.9441 20.7812H19.8477C19.7273 20.7812 19.6289 20.6828 19.6289 20.5625V18.9219C19.6289 18.8016 19.7273 18.7031 19.8477 18.7031H20.9441C21.8656 18.7031 22.7324 18.3367 23.3777 17.6723C24.0203 17.0105 24.3621 16.1191 24.332 15.1949C24.3074 14.473 24.0613 13.7949 23.6156 13.2234C23.159 12.641 22.5191 12.2172 21.8082 12.0285L20.7719 11.7578L20.3918 10.757C20.1566 10.1336 19.8285 9.55117 19.4156 9.02344C19.008 8.50037 18.5252 8.04057 17.9828 7.65898C16.859 6.86875 15.5355 6.45039 14.1547 6.45039C12.7738 6.45039 11.4504 6.86875 10.3266 7.65898C9.78242 8.0418 9.30117 8.50117 8.89375 9.02344C8.48086 9.55117 8.15273 10.1363 7.91758 10.757L7.54024 11.7551L6.50664 12.0285C5.02461 12.4277 3.98828 13.7758 3.98828 15.3125C3.98828 16.2176 4.34101 17.0707 4.98086 17.7105C5.29465 18.0262 5.66792 18.2764 6.07908 18.4468C6.49024 18.6172 6.93111 18.7043 7.37617 18.7031H8.47266C8.59297 18.7031 8.69141 18.8016 8.69141 18.9219V20.5625C8.69141 20.6828 8.59297 20.7812 8.47266 20.7812H7.37617C4.35742 20.7812 1.91016 18.334 1.91016 15.3125C1.91016 12.7777 3.63555 10.6449 5.97344 10.027Z" fill="white"/>
</svg>
