<svg width="25" height="24" viewBox="0 0 25 24" fill="none" xmlns="http://www.w3.org/2000/svg">
<path d="M21.6945 10.962C22.1685 11.582 22.1685 12.419 21.6945 13.038C20.2015 14.987 16.6195 19 12.4375 19C8.25551 19 4.67351 14.987 3.18051 13.038C2.94989 12.7411 2.82471 12.3759 2.82471 12C2.82471 11.6241 2.94989 11.2589 3.18051 10.962C4.67351 9.013 8.25551 5 12.4375 5C16.6195 5 20.2015 9.013 21.6945 10.962V10.962Z" stroke="white" stroke-width="2" stroke-linecap="round" stroke-linejoin="round"/>
<path d="M12.4375 15C14.0944 15 15.4375 13.6569 15.4375 12C15.4375 10.3431 14.0944 9 12.4375 9C10.7806 9 9.4375 10.3431 9.4375 12C9.4375 13.6569 10.7806 15 12.4375 15Z" stroke="white" stroke-width="2" stroke-linecap="round" stroke-linejoin="round"/>
</svg>
