<svg width="52" height="51" viewBox="0 0 52 51" fill="none" xmlns="http://www.w3.org/2000/svg">
<path fill-rule="evenodd" clip-rule="evenodd" d="M32.25 35.0059V21.1798C32.25 20.0809 31.3533 19.1866 30.2511 19.1866H16.2111C15.8303 19.1866 15.4794 18.9793 15.2958 18.6464L14.9574 18.0329C14.6065 17.396 13.9349 17 13.2059 17H11.2489C10.1467 17 9.25 17.8943 9.25 18.9932V35.0059C9.25 36.1057 10.1467 37 11.2489 37H30.2511C31.3533 37 32.25 36.1057 32.25 35.0059ZM11.2489 17.952H13.2059C13.5867 17.952 13.9377 18.1593 14.1213 18.4921L14.4596 19.1057C14.8106 19.7425 15.4822 20.1386 16.2111 20.1386H30.2511C30.8271 20.1386 31.2955 20.6053 31.2955 21.1798V22.7212H10.2045V18.9932C10.2045 18.4187 10.6729 17.952 11.2489 17.952ZM10.2045 23.6732V35.0059C10.2045 35.5804 10.6729 36.048 11.2489 36.048H30.2511C30.8271 36.048 31.2955 35.5804 31.2955 35.0059V23.6732H10.2045Z" fill="#440099"/>
<path d="M15.2958 18.6464L15.0331 18.7913L15.0331 18.7914L15.2958 18.6464ZM14.9574 18.0329L14.6947 18.1777L14.6947 18.1777L14.9574 18.0329ZM14.1213 18.4921L14.384 18.3473L14.384 18.3472L14.1213 18.4921ZM14.4596 19.1057L14.7224 18.9609L14.7223 18.9608L14.4596 19.1057ZM31.2955 22.7212V23.0212H31.5955V22.7212H31.2955ZM10.2045 22.7212H9.9045V23.0212H10.2045V22.7212ZM10.2045 23.6732V23.3732H9.9045V23.6732H10.2045ZM31.2955 23.6732H31.5955V23.3732H31.2955V23.6732ZM31.95 21.1798V35.0059H32.55V21.1798H31.95ZM30.2511 19.4866C31.1884 19.4866 31.95 20.2474 31.95 21.1798H32.55C32.55 19.9145 31.5182 18.8866 30.2511 18.8866V19.4866ZM16.2111 19.4866H30.2511V18.8866H16.2111V19.4866ZM15.0331 18.7914C15.2695 19.2199 15.7211 19.4866 16.2111 19.4866V18.8866C15.9396 18.8866 15.6893 18.7386 15.5584 18.5015L15.0331 18.7914ZM14.6947 18.1777L15.0331 18.7913L15.5585 18.5016L15.2201 17.888L14.6947 18.1777ZM13.2059 17.3C13.8259 17.3 14.3966 17.6369 14.6947 18.1777L15.2201 17.8881C14.8163 17.1552 14.0438 16.7 13.2059 16.7V17.3ZM11.2489 17.3H13.2059V16.7H11.2489V17.3ZM9.55 18.9932C9.55 18.0608 10.3116 17.3 11.2489 17.3V16.7C9.98181 16.7 8.95 17.7279 8.95 18.9932H9.55ZM9.55 35.0059V18.9932H8.95V35.0059H9.55ZM11.2489 36.7C10.3117 36.7 9.55 35.9393 9.55 35.0059H8.95C8.95 36.272 9.98172 37.3 11.2489 37.3V36.7ZM30.2511 36.7H11.2489V37.3H30.2511V36.7ZM31.95 35.0059C31.95 35.9393 31.1883 36.7 30.2511 36.7V37.3C31.5183 37.3 32.55 36.272 32.55 35.0059H31.95ZM13.2059 17.652H11.2489V18.252H13.2059V17.652ZM14.384 18.3472C14.1475 17.9187 13.6959 17.652 13.2059 17.652V18.252C13.4775 18.252 13.7278 18.3999 13.8586 18.637L14.384 18.3472ZM14.7223 18.9608L14.384 18.3473L13.8586 18.637L14.1969 19.2506L14.7223 18.9608ZM16.2111 19.8386C15.5912 19.8386 15.0204 19.5017 14.7224 18.9609L14.1969 19.2505C14.6008 19.9834 15.3732 20.4386 16.2111 20.4386V19.8386ZM30.2511 19.8386H16.2111V20.4386H30.2511V19.8386ZM31.5955 21.1798C31.5955 20.4387 30.9919 19.8386 30.2511 19.8386V20.4386C30.6623 20.4386 30.9955 20.7719 30.9955 21.1798H31.5955ZM31.5955 22.7212V21.1798H30.9955V22.7212H31.5955ZM10.2045 23.0212H31.2955V22.4212H10.2045V23.0212ZM9.9045 18.9932V22.7212H10.5045V18.9932H9.9045ZM11.2489 17.652C10.5081 17.652 9.9045 18.2521 9.9045 18.9932H10.5045C10.5045 18.5853 10.8377 18.252 11.2489 18.252V17.652ZM10.5045 35.0059V23.6732H9.9045V35.0059H10.5045ZM11.2489 35.748C10.838 35.748 10.5045 35.4141 10.5045 35.0059H9.9045C9.9045 35.7466 10.5078 36.348 11.2489 36.348V35.748ZM30.2511 35.748H11.2489V36.348H30.2511V35.748ZM30.9955 35.0059C30.9955 35.4141 30.662 35.748 30.2511 35.748V36.348C30.9922 36.348 31.5955 35.7466 31.5955 35.0059H30.9955ZM30.9955 23.6732V35.0059H31.5955V23.6732H30.9955ZM10.2045 23.9732H31.2955V23.3732H10.2045V23.9732Z" fill="#440099"/>
<path fill-rule="evenodd" clip-rule="evenodd" d="M28.2023 30.7074C28.3481 31.1102 28.1485 31.5582 27.7561 31.7085C26.7882 32.0972 25.7131 32.0972 24.7452 31.7085H24.7433C24.3519 31.5582 24.1525 31.1116 24.2971 30.7094L24.8894 28.9973C24.6193 28.6709 24.4707 28.2569 24.4699 27.8287C24.468 26.8743 25.1832 26.0796 26.1107 26.0056C27.0382 25.9315 27.8646 26.6031 28.0067 27.5463C28.0854 28.0664 27.9399 28.5959 27.608 28.9973L28.2023 30.7074ZM25.467 27.538C25.351 27.8803 25.4591 28.2603 25.7362 28.4851H25.7343C25.8927 28.6144 25.9537 28.8327 25.8861 29.0285L25.252 30.8593C25.8999 31.0788 26.5994 31.0788 27.2473 30.8593L26.6132 29.0285C26.5457 28.8327 26.6067 28.6144 26.7651 28.4851C27.0422 28.2603 27.1502 27.8803 27.0343 27.538C26.9184 27.1957 26.6039 26.9662 26.2506 26.9662C25.8974 26.9662 25.5829 27.1957 25.467 27.538Z" fill="#440099"/>
</svg>
