<svg width="23" height="22" viewBox="0 0 23 22" fill="none" xmlns="http://www.w3.org/2000/svg">
<circle cx="11.2274" cy="11.1044" r="10.8935" fill="#F2EEF8"/>
<path d="M10.9501 6.03094C9.68643 6.03094 8.65839 7.05899 8.65839 8.32261V9.23928H8.20005C7.69451 9.23928 7.28339 9.6504 7.28339 10.1559V14.2809C7.28339 14.7865 7.69451 15.1976 8.20005 15.1976H13.7001C14.2056 15.1976 14.6167 14.7865 14.6167 14.2809V10.1559C14.6167 9.6504 14.2056 9.23928 13.7001 9.23928H13.2417V8.32261C13.2417 7.05899 12.2137 6.03094 10.9501 6.03094ZM9.57505 8.32261C9.57505 7.56453 10.192 6.94761 10.9501 6.94761C11.7081 6.94761 12.3251 7.56453 12.3251 8.32261V9.23928H9.57505V8.32261ZM13.701 14.2809H11.4084V13.2369C11.6811 13.0778 11.8667 12.7854 11.8667 12.4476C11.8667 11.9421 11.4556 11.5309 10.9501 11.5309C10.4445 11.5309 10.0334 11.9421 10.0334 12.4476C10.0334 12.7849 10.219 13.0778 10.4917 13.2369V14.2809H8.20005V10.1559H13.7001L13.701 14.2809Z" fill="#AB91D2"/>
</svg>
