<svg width="32" height="32" viewBox="0 0 32 32" fill="none" xmlns="http://www.w3.org/2000/svg">
<path fill-rule="evenodd" clip-rule="evenodd" d="M12.0301 6.18798C12.2667 4.20456 13.9547 2.66675 16.0018 2.66675C18.0489 2.66675 19.7369 4.20458 19.9734 6.18803C23.3103 7.70074 25.6314 11.0608 25.6314 14.963V21.6533L27.8587 26.0659C28.3063 26.9528 27.6618 28.0001 26.6684 28.0001H5.33507C4.34168 28.0001 3.69715 26.9528 4.14478 26.0659L6.37211 21.6533V14.963C6.37211 11.0608 8.69323 7.70066 12.0301 6.18798ZM16.0027 5.33341C16.0024 5.33341 16.0021 5.33341 16.0018 5.33341C16.0018 5.33341 16.0018 5.33341 16.0017 5.33341C16.002 5.33341 16.0024 5.33341 16.0027 5.33341Z" fill="#38057F"/>
<path d="M12.002 28.0001C12.002 30.2092 13.7928 32.0001 16.002 32.0001C18.2111 32.0001 20.002 30.2092 20.002 28.0001H17.3353C17.3353 28.7364 16.7383 29.3334 16.002 29.3334C15.2656 29.3334 14.6686 28.7364 14.6686 28.0001H12.002Z" fill="#B49ED6"/>
</svg>
