<svg xmlns="http://www.w3.org/2000/svg" fill="none" viewBox="13.95 16.7 23.6 20.6">
<path fill-rule="evenodd" clip-rule="evenodd" d="M37.25 35.0015V21.1755C37.25 20.0766 36.3533 19.1823 35.2511 19.1823H21.2111C20.8303 19.1823 20.4794 18.9749 20.2958 18.6421L19.9574 18.0285C19.6065 17.3917 18.9349 16.9957 18.2059 16.9957H16.2489C15.1467 16.9957 14.25 17.89 14.25 18.9889V35.0015C14.25 36.1013 15.1467 36.9957 16.2489 36.9957H35.2511C36.3533 36.9957 37.25 36.1013 37.25 35.0015ZM16.2489 17.9476H18.2059C18.5867 17.9476 18.9377 18.155 19.1213 18.4878L19.4596 19.1014C19.8106 19.7382 20.4822 20.1342 21.2111 20.1342H35.2511C35.8271 20.1342 36.2955 20.6009 36.2955 21.1755V22.7169H15.2045V18.9889C15.2045 18.4143 15.6729 17.9476 16.2489 17.9476ZM15.2045 23.6688V35.0015C15.2045 35.5761 15.6729 36.0437 16.2489 36.0437H35.2511C35.8271 36.0437 36.2955 35.5761 36.2955 35.0015V23.6688H15.2045Z" fill="#C1BEBE"/>
<path d="M20.2958 18.6421L20.0331 18.787L20.0331 18.787L20.2958 18.6421ZM19.9574 18.0285L19.6947 18.1733L19.6947 18.1734L19.9574 18.0285ZM19.1213 18.4878L19.384 18.3429L19.384 18.3429L19.1213 18.4878ZM19.4596 19.1014L19.7224 18.9566L19.7223 18.9565L19.4596 19.1014ZM36.2955 22.7169V23.0169H36.5955V22.7169H36.2955ZM15.2045 22.7169H14.9045V23.0169H15.2045V22.7169ZM15.2045 23.6688V23.3688H14.9045V23.6688H15.2045ZM36.2955 23.6688H36.5955V23.3688H36.2955V23.6688ZM36.95 21.1755V35.0015H37.55V21.1755H36.95ZM35.2511 19.4823C36.1884 19.4823 36.95 20.2431 36.95 21.1755H37.55C37.55 19.9101 36.5182 18.8823 35.2511 18.8823V19.4823ZM21.2111 19.4823H35.2511V18.8823H21.2111V19.4823ZM20.0331 18.787C20.2695 19.2156 20.7211 19.4823 21.2111 19.4823V18.8823C20.9396 18.8823 20.6893 18.7343 20.5584 18.4972L20.0331 18.787ZM19.6947 18.1734L20.0331 18.787L20.5585 18.4972L20.2201 17.8837L19.6947 18.1734ZM18.2059 17.2957C18.8259 17.2957 19.3966 17.6325 19.6947 18.1733L20.2201 17.8837C19.8163 17.1509 19.0438 16.6957 18.2059 16.6957V17.2957ZM16.2489 17.2957H18.2059V16.6957H16.2489V17.2957ZM14.55 18.9889C14.55 18.0565 15.3116 17.2957 16.2489 17.2957V16.6957C14.9818 16.6957 13.95 17.7235 13.95 18.9889H14.55ZM14.55 35.0015V18.9889H13.95V35.0015H14.55ZM16.2489 36.6957C15.3117 36.6957 14.55 35.9349 14.55 35.0015H13.95C13.95 36.2677 14.9817 37.2957 16.2489 37.2957V36.6957ZM35.2511 36.6957H16.2489V37.2957H35.2511V36.6957ZM36.95 35.0015C36.95 35.9349 36.1883 36.6957 35.2511 36.6957V37.2957C36.5183 37.2957 37.55 36.2677 37.55 35.0015H36.95ZM18.2059 17.6476H16.2489V18.2476H18.2059V17.6476ZM19.384 18.3429C19.1475 17.9143 18.6959 17.6476 18.2059 17.6476V18.2476C18.4775 18.2476 18.7278 18.3956 18.8586 18.6327L19.384 18.3429ZM19.7223 18.9565L19.384 18.3429L18.8586 18.6327L19.1969 19.2462L19.7223 18.9565ZM21.2111 19.8342C20.5912 19.8342 20.0204 19.4974 19.7224 18.9566L19.1969 19.2462C19.6008 19.979 20.3732 20.4342 21.2111 20.4342V19.8342ZM35.2511 19.8342H21.2111V20.4342H35.2511V19.8342ZM36.5955 21.1755C36.5955 20.4343 35.9919 19.8342 35.2511 19.8342V20.4342C35.6623 20.4342 35.9955 20.7675 35.9955 21.1755H36.5955ZM36.5955 22.7169V21.1755H35.9955V22.7169H36.5955ZM15.2045 23.0169H36.2955V22.4169H15.2045V23.0169ZM14.9045 18.9889V22.7169H15.5045V18.9889H14.9045ZM16.2489 17.6476C15.5081 17.6476 14.9045 18.2477 14.9045 18.9889H15.5045C15.5045 18.5809 15.8377 18.2476 16.2489 18.2476V17.6476ZM15.5045 35.0015V23.6688H14.9045V35.0015H15.5045ZM16.2489 35.7437C15.838 35.7437 15.5045 35.4098 15.5045 35.0015H14.9045C14.9045 35.7423 15.5078 36.3437 16.2489 36.3437V35.7437ZM35.2511 35.7437H16.2489V36.3437H35.2511V35.7437ZM35.9955 35.0015C35.9955 35.4098 35.662 35.7437 35.2511 35.7437V36.3437C35.9922 36.3437 36.5955 35.7423 36.5955 35.0015H35.9955ZM35.9955 23.6688V35.0015H36.5955V23.6688H35.9955ZM15.2045 23.9688H36.2955V23.3688H15.2045V23.9688Z" fill="#C1BEBE"/>
<path fill-rule="evenodd" clip-rule="evenodd" d="M28.2023 31.7031C28.3481 32.1059 28.1485 32.5538 27.7561 32.7042C26.7882 33.0928 25.7131 33.0928 24.7452 32.7042H24.7433C24.3519 32.5538 24.1525 32.1073 24.2971 31.705L24.8894 29.993C24.6193 29.6666 24.4707 29.2525 24.4699 28.8244C24.468 27.87 25.1832 27.0753 26.1107 27.0012C27.0382 26.9272 27.8646 27.5988 28.0067 28.5419C28.0854 29.0621 27.9399 29.5916 27.608 29.993L28.2023 31.7031ZM25.467 28.5336C25.351 28.8759 25.4591 29.256 25.7362 29.4807H25.7343C25.8927 29.6101 25.9537 29.8283 25.8861 30.0242L25.252 31.855C25.8999 32.0745 26.5994 32.0745 27.2473 31.855L26.6132 30.0242C26.5457 29.8283 26.6067 29.6101 26.7651 29.4807C27.0422 29.256 27.1502 28.8759 27.0343 28.5336C26.9184 28.1913 26.6039 27.9619 26.2506 27.9619C25.8974 27.9619 25.5829 28.1913 25.467 28.5336Z" fill="#C1BEBE"/>
</svg>