<svg width="25" height="24" viewBox="0 0 25 24" fill="none" xmlns="http://www.w3.org/2000/svg">
<path d="M12.9375 2C10.9597 2 9.02629 2.58649 7.3818 3.6853C5.73731 4.78412 4.45559 6.3459 3.69871 8.17317C2.94183 10.0004 2.7438 12.0111 3.12965 13.9509C3.5155 15.8907 4.46791 17.6725 5.86644 19.0711C7.26496 20.4696 9.04679 21.422 10.9866 21.8079C12.9264 22.1937 14.9371 21.9957 16.7643 21.2388C18.5916 20.4819 20.1534 19.2002 21.2522 17.5557C22.351 15.9112 22.9375 13.9778 22.9375 12C22.9375 10.6868 22.6788 9.38642 22.1763 8.17317C21.6738 6.95991 20.9372 5.85752 20.0086 4.92893C19.08 4.00035 17.9776 3.26375 16.7643 2.7612C15.5511 2.25866 14.2507 2 12.9375 2ZM12.9375 20C11.3553 20 9.80854 19.5308 8.49294 18.6518C7.17735 17.7727 6.15197 16.5233 5.54647 15.0615C4.94097 13.5997 4.78254 11.9911 5.09122 10.4393C5.3999 8.88743 6.16183 7.46197 7.28065 6.34315C8.39947 5.22433 9.82493 4.4624 11.3768 4.15372C12.9286 3.84504 14.5372 4.00346 15.999 4.60896C17.4608 5.21447 18.7102 6.23984 19.5893 7.55544C20.4683 8.87103 20.9375 10.4177 20.9375 12C20.9375 14.1217 20.0947 16.1566 18.5944 17.6569C17.0941 19.1571 15.0592 20 12.9375 20Z" fill="white"/>
<path d="M15.6475 9.29C15.5545 9.19627 15.4439 9.12188 15.3221 9.07111C15.2002 9.02034 15.0695 8.9942 14.9375 8.9942C14.8055 8.9942 14.6748 9.02034 14.5529 9.07111C14.4311 9.12188 14.3205 9.19627 14.2275 9.29L12.9375 10.59L11.6475 9.29C11.4592 9.1017 11.2038 8.99591 10.9375 8.99591C10.6712 8.99591 10.4158 9.1017 10.2275 9.29C10.0392 9.4783 9.93341 9.7337 9.93341 10C9.93341 10.2663 10.0392 10.5217 10.2275 10.71L11.5275 12L10.2275 13.29C10.1338 13.383 10.0594 13.4936 10.0086 13.6154C9.95784 13.7373 9.9317 13.868 9.9317 14C9.9317 14.132 9.95784 14.2627 10.0086 14.3846C10.0594 14.5064 10.1338 14.617 10.2275 14.71C10.3205 14.8037 10.4311 14.8781 10.5529 14.9289C10.6748 14.9797 10.8055 15.0058 10.9375 15.0058C11.0695 15.0058 11.2002 14.9797 11.3221 14.9289C11.4439 14.8781 11.5545 14.8037 11.6475 14.71L12.9375 13.41L14.2275 14.71C14.3205 14.8037 14.4311 14.8781 14.5529 14.9289C14.6748 14.9797 14.8055 15.0058 14.9375 15.0058C15.0695 15.0058 15.2002 14.9797 15.3221 14.9289C15.4439 14.8781 15.5545 14.8037 15.6475 14.71C15.7412 14.617 15.8156 14.5064 15.8664 14.3846C15.9172 14.2627 15.9433 14.132 15.9433 14C15.9433 13.868 15.9172 13.7373 15.8664 13.6154C15.8156 13.4936 15.7412 13.383 15.6475 13.29L14.3475 12L15.6475 10.71C15.7412 10.617 15.8156 10.5064 15.8664 10.3846C15.9172 10.2627 15.9433 10.132 15.9433 10C15.9433 9.86799 15.9172 9.73728 15.8664 9.61542C15.8156 9.49356 15.7412 9.38296 15.6475 9.29Z" fill="white"/>
</svg>
