<svg width="29" height="29" viewBox="0 0 29 29" fill="none" xmlns="http://www.w3.org/2000/svg">
<g opacity="0.8">
<path fill-rule="evenodd" clip-rule="evenodd" d="M4.91663 23.329C4.91663 23.8813 5.36434 24.329 5.91663 24.329H22.5833C23.1356 24.329 23.5833 23.8813 23.5833 23.329V6.66233C23.5833 6.11004 23.1356 5.66233 22.5833 5.66233H5.91662C5.36434 5.66233 4.91663 6.11004 4.91663 6.66233V23.329Z" stroke="#97A0C3" stroke-width="1.5"/>
<path fill-rule="evenodd" clip-rule="evenodd" d="M11.0658 11.4888C10.5871 11.4882 10.3812 12.0958 10.7618 12.3863L13.5684 14.5284C13.9266 14.8019 14.4236 14.8019 14.7818 14.5284L17.5885 12.3862C17.969 12.0958 17.7631 11.4882 17.2844 11.4888L15.3418 11.4913V9.66234C15.3418 9.3862 15.1179 9.16234 14.8418 9.16234H13.5018C13.2257 9.16234 13.0018 9.3862 13.0018 9.66234V11.4913L11.0658 11.4888Z" fill="#97A0C3"/>
<path d="M23.5833 17.5525H17.25C16.6977 17.5525 16.25 18.0002 16.25 18.5525V19.2345C16.25 19.7868 15.8023 20.2345 15.25 20.2345H13.25C12.6977 20.2345 12.25 19.7868 12.25 19.2345V18.5525C12.25 18.0002 11.8023 17.5525 11.25 17.5525H5.53613" stroke="#97A0C3" stroke-width="1.5"/>
</g>
</svg>
